<svg width="100" height="100" viewBox="0 0 100 100" xmlns="http://www.w3.org/2000/svg">
  <path d="M50 5 L15 20 V45 C15 70 30 90 50 95 C70 90 85 70 85 45 V20 L50 5 Z" fill="#0f172a" />
  <path d="M50 5 L85 20 L85 45 C85 60 78 75 50 95" fill="#2563eb" opacity="0.3" />
  <g transform="translate(25, 25) scale(0.5)">
    <rect x="10" y="10" width="80" height="4" rx="2" fill="white" />
    <rect x="48" y="5" width="4" height="40" rx="2" fill="white" />
    <path d="M10 14 L10 40 A10 10 0 0 0 30 40 L30 14" fill="none" stroke="white" stroke-width="3" />
    <path d="M70 14 L70 40 A10 10 0 0 0 90 40 L90 14" fill="none" stroke="white" stroke-width="3" />
  </g>
</svg>
